<svg 
 xmlns="http://www.w3.org/2000/svg"
 xmlns:xlink="http://www.w3.org/1999/xlink"
 width="25px" height="30px">
<defs>
<filter filterUnits="userSpaceOnUse" id="Filter_0" x="0px" y="0px" width="25px" height="30px"  >
    <feOffset in="SourceAlpha" dx="2.828" dy="2.828" />
    <feGaussianBlur result="blurOut" stdDeviation="0" />
    <feFlood flood-color="rgb(0, 0, 0)" result="floodOut" />
    <feComposite operator="atop" in="floodOut" in2="blurOut" />
    <feComponentTransfer><feFuncA type="linear" slope="0.1"/></feComponentTransfer>
    <feMerge>
    <feMergeNode/>
    <feMergeNode in="SourceGraphic"/>
  </feMerge>
</filter>

</defs>
<g filter="url(#Filter_0)">
<path fill-rule="evenodd"  fill="rgb(165, 221, 76)"
 d="M21.638,23.252 C21.546,24.222 20.149,26.148 18.471,26.334 C17.588,26.432 14.813,25.969 11.896,25.978 C8.801,25.988 6.142,26.586 4.897,26.378 C3.117,26.081 1.025,25.786 0.915,24.265 C0.830,23.101 0.824,21.403 0.824,21.403 C0.837,20.806 1.963,19.906 2.363,19.906 C2.363,19.906 3.286,19.734 4.534,19.994 C5.224,20.137 4.879,22.132 5.711,22.283 C9.698,23.007 13.565,23.697 17.796,23.120 C18.245,23.059 17.833,21.545 17.928,20.962 C18.013,20.447 18.608,20.091 18.846,19.994 C20.112,19.477 21.005,19.994 21.005,19.994 C21.405,19.994 21.656,20.314 21.729,20.698 C21.802,21.083 21.731,22.282 21.638,23.252 ZM14.188,19.022 C12.796,20.631 11.595,21.292 10.596,20.707 C8.881,19.702 6.256,15.403 3.467,11.293 C3.356,11.128 3.262,10.979 3.356,10.570 C3.470,10.073 3.930,9.249 4.897,9.144 C5.233,9.108 6.328,8.922 7.110,8.908 C8.319,8.885 8.086,8.745 8.086,8.745 C8.086,8.745 7.195,3.260 7.696,2.064 C7.819,1.769 8.358,1.182 9.483,1.074 C9.916,1.032 11.407,0.984 12.519,0.971 C13.725,0.957 14.025,1.126 14.647,1.126 C15.587,1.126 16.134,2.163 15.892,3.494 C15.422,6.084 15.734,8.866 15.734,8.866 C15.734,8.866 18.387,8.859 19.105,9.011 C19.812,9.160 20.180,9.656 18.984,12.067 C18.296,13.453 15.717,17.254 14.188,19.022 Z"/>
</g>
</svg>